HIERARCHY
ROOT Hips
{
  OFFSET 43.0842 91.1655 101.099
  CHANNELS 6 Xposition Yposition Zposition Zrotation Xrotation Yrotation
  JOINT LeftUpLeg
  {
    OFFSET 8.64259 1.95398 -2.38835
    CHANNELS 3 Zrotation Xrotation Yrotation
    JOINT LeftLeg
    {
      OFFSET 43.7702 0 0
      CHANNELS 3 Zrotation Xrotation Yrotation
      JOINT LeftFoot
      {
        OFFSET 40.6238 0 0
        CHANNELS 3 Zrotation Xrotation Yrotation
        JOINT LeftToeBase
        {
          OFFSET 12.7242 0 0
          CHANNELS 3 Zrotation Xrotation Yrotation
          End Site
          {
            OFFSET 0 0 0
          }
        }
      }
    }
  }
  JOINT RightUpLeg
  {
    OFFSET -8.2249 1.95398 -2.59336
    CHANNELS 3 Zrotation Xrotation Yrotation
    JOINT RightLeg
    {
      OFFSET 43.5653 0 0
      CHANNELS 3 Zrotation Xrotation Yrotation
      JOINT RightFoot
      {
        OFFSET 40.6238 0 0
        CHANNELS 3 Zrotation Xrotation Yrotation
        JOINT RightToeBase
        {
          OFFSET 12.7242 0 0
          CHANNELS 3 Zrotation Xrotation Yrotation
          End Site
          {
            OFFSET 0 0 0
          }
        }
      }
    }
  }
  JOINT Spine
  {
    OFFSET 0.165834 0.87714 6.61349
    CHANNELS 3 Zrotation Xrotation Yrotation
    JOINT Spine1
    {
      OFFSET 7.38963 1.71661e-005 0
      CHANNELS 3 Zrotation Xrotation Yrotation
      JOINT Spine2
      {
        OFFSET 11.9445 1.14441e-005 0
        CHANNELS 3 Zrotation Xrotation Yrotation
        JOINT Spine3
        {
          OFFSET 14.7254 4.19617e-005 0
          CHANNELS 3 Zrotation Xrotation Yrotation
          JOINT Spine4
          {
            OFFSET 10.9679 0 0
            CHANNELS 3 Zrotation Xrotation Yrotation
            JOINT RightShoulder
            {
              OFFSET 2.46616 -1.6653 3.69651
              CHANNELS 3 Zrotation Xrotation Yrotation
              JOINT RightArm
              {
                OFFSET 13.0012 0 0
                CHANNELS 3 Zrotation Xrotation Yrotation
                JOINT RightForeArm
                {
                  OFFSET 28.7848 1.52588e-005 0
                  CHANNELS 3 Zrotation Xrotation Yrotation
                  JOINT RightHand
                  {
                    OFFSET 26.5688 1.52588e-005 0
                    CHANNELS 3 Zrotation Xrotation Yrotation
                    End Site
                    {
                      OFFSET 0 0 0
                    }
                  }
                }
              }
            }
            JOINT LeftShoulder
            {
              OFFSET 2.38034 -1.29275 -3.7523
              CHANNELS 3 Zrotation Xrotation Yrotation
              JOINT LeftArm
              {
                OFFSET 16.3182 6.10351e-005 0
                CHANNELS 3 Zrotation Xrotation Yrotation
                JOINT LeftForeArm
                {
                  OFFSET 27.0901 0 0
                  CHANNELS 3 Zrotation Xrotation Yrotation
                  JOINT LeftHand
                  {
                    OFFSET 24.5451 1.52588e-005 0
                    CHANNELS 3 Zrotation Xrotation Yrotation
                    End Site
                    {
                      OFFSET 0 0 0
                    }
                  }
                }
              }
            }
            JOINT Neck
            {
              OFFSET 5.0226 -0.0266342 0
              CHANNELS 3 Zrotation Xrotation Yrotation
              JOINT Head
              {
                OFFSET 6.69364 2.86102e-005 0
                CHANNELS 3 Zrotation Xrotation Yrotation
                End Site
                {
                  OFFSET 0 0 0
                }
              }
            }
          }
        }
      }
    }
  }
}
MOTION
Frames:	18
Frame Time:	0.0333333
5.5364 91.2795 108.428 94.9634 -51.965 93.8311 -175.117 10.748 95.2689 -32.8457 24.8321 0.500334 64.488 6.05596 14.2514 35.2006 4.35967 7.33723 171.35 12.8282 80.0457 -16.7634 3.74345 0.474053 59.9253 0.858391 -2.75523 29.5681 -1.20996 2.1821 0.293157 7.31604 -90.0465 12.2423 0.559259 -0.15562 0.571482 0.552129 -0.180152 -21.9647 0.581526 0.0200886 -1.95199 0.581521 0.0200837 94.9344 -48.0923 -93.4986 43.8229 63.164 -47.25 -7.96304 -21.7044 -123.706 -11.6559 -1.76204 8.05284 -92.2665 -48.9923 75.0945 -13.8816 9.18658 -43.2373 5.85661 4.13184 -112.028 4.98901 -0.17491 2.61425 -29.5279 -11.3137 -10.2111 1.11884 -13.1713 -7.1112 
5.57334 91.2906 108.439 95.0119 -52.0591 93.8334 -175.114 10.6657 95.1994 -32.7826 24.7177 0.493463 64.4443 5.96016 14.3463 35.1844 4.41846 7.18711 171.331 12.8262 79.9914 -16.7226 3.76837 0.465867 59.7979 0.977998 -2.81348 29.9474 -1.42808 2.22404 0.290757 7.32029 -90.0376 12.2337 0.56023 -0.137659 0.562907 0.553725 -0.162177 -21.9732 0.575583 0.0370439 -1.96057 0.575586 0.0370466 94.8203 -48.3165 -93.6457 43.7924 63.3281 -47.3794 -7.86229 -22.0476 -123.726 -11.9512 -1.86538 7.98734 -92.3842 -49.1379 74.9554 -13.7045 9.25193 -42.9655 5.348 3.86712 -112.216 4.27107 -0.373683 3.07114 -29.7166 -11.437 -10.1211 1.52747 -13.3441 -7.38266 
5.599 91.3167 108.467 94.8874 -52.1127 93.6511 -175.081 10.6548 95.0503 -32.7466 24.5688 0.431562 64.9437 6.88441 14.2741 34.3392 2.72816 8.05039 171.334 12.9101 79.93 -16.7423 3.69093 0.44214 59.8149 0.84356 -2.48949 29.86 -1.06841 1.31829 0.285601 7.32283 -90.036 12.2287 0.550453 -0.133653 0.557907 0.544035 -0.15776 -21.9782 0.565179 0.0379644 -1.96555 0.56517 0.0379634 94.6189 -48.385 -93.9536 42.8308 63.184 -46.7249 -6.55161 -22.4438 -123.496 -12.819 -2.15548 8.30254 -92.5596 -49.2943 74.7334 -13.6672 9.73409 -42.5898 5.391 3.15457 -112.501 3.67236 -0.702326 4.42792 -29.9251 -11.7522 -10.0855 1.99299 -13.7372 -7.87688 
5.67689 91.3262 108.576 95.5937 -52.1603 94.4898 -174.853 10.1678 95.3634 -32.8137 24.4408 0.477557 65.1586 7.18719 14.1147 34.3948 2.77921 8.10027 171.329 12.1607 80.1888 -16.3583 3.64251 0.397204 59.7622 0.757523 -2.54466 29.8528 -1.12266 1.486 0.279429 7.37924 -90.095 12.116 0.510598 -0.245868 0.4451 0.499283 -0.268108 -22.0908 0.560861 -0.0810413 -2.07818 0.560894 -0.0810366 94.5306 -48.0066 -94.1512 42.5839 62.8987 -46.397 -7.07605 -21.9493 -123.881 -12.894 -2.18065 8.35736 -92.8248 -49.7514 74.457 -13.1096 10.5586 -42.2598 7.8471 1.44604 -112.847 4.23165 -0.581317 4.32461 -29.886 -11.9637 -9.31327 2.04593 -13.8767 -8.25593 
5.67724 91.3288 108.596 95.5664 -52.0927 94.4731 -174.74 10.2182 95.5255 -32.8055 25.5252 0.339234 64.9606 6.90554 14.6621 34.4398 2.84227 8.10345 171.351 12.3015 80.2027 -16.6864 3.73712 0.359576 59.7778 0.80101 -2.51921 30.0064 -1.20285 1.47645 0.274693 7.38894 -90.0833 12.0966 0.506842 -0.221897 0.425696 0.496562 -0.243988 -22.1102 0.550081 -0.0593084 -2.09758 0.550083 -0.0593106 94.637 -48.1947 -93.954 42.7185 62.8164 -46.8272 -7.33095 -21.9193 -124.149 -13.1858 -2.2755 8.79001 -92.4624 -49.3879 74.9026 -13.0839 10.3718 -42.6293 6.72455 1.84725 -113.128 3.7781 -0.685771 4.44355 -29.9501 -11.9473 -9.36631 1.84913 -13.8697 -8.42991 
5.69649 91.3228 108.618 95.5524 -52.0199 94.4778 -174.819 10.2102 95.4696 -32.8897 25.3406 0.440394 65.0618 6.98426 14.5809 34.3704 2.76431 8.0655 171.331 12.1956 80.2146 -16.5528 3.71377 0.374312 59.8005 0.692893 -2.68932 29.9946 -1.20971 1.51463 0.276923 7.38469 -90.094 12.1051 0.506098 -0.243256 0.434218 0.494923 -0.265306 -22.1017 0.555828 -0.0800138 -2.08905 0.555807 -0.0800313 94.6912 -48.2348 -93.8617 41.8485 62.7081 -46.32 -7.47097 -21.5651 -124.476 -13.4783 -2.3738 9.11716 -92.532 -49.4684 74.8199 -13.3312 9.78337 -42.6904 7.00285 2.33327 -113.47 4.04542 -0.667655 4.63917 -30.1158 -12.0331 -9.44862 1.94257 -13.986 -8.34484 
5.72538 91.3354 108.627 95.5257 -51.9301 94.4316 -174.93 10.1325 95.3872 -32.7825 25.1525 0.534653 65.1006 7.08729 14.4903 34.309 2.67213 8.0714 171.36 12.0437 80.2085 -16.3013 3.85778 0.318176 59.8357 0.701781 -2.82864 29.7748 -1.14652 1.67658 0.265021 7.392 -90.088 12.0904 0.485293 -0.228861 0.419547 0.474735 -0.250012 -22.1163 0.531631 -0.0710894 -2.10367 0.531621 -0.0710951 94.7867 -48.1877 -93.7181 42.0143 62.4987 -46.545 -7.7297 -21.3821 -124.636 -13.316 -2.32221 8.65797 -92.3717 -49.3804 75.0365 -13.4887 9.46446 -42.9288 6.31174 2.85862 -113.474 3.96186 -0.695592 4.71473 -29.9053 -12.1084 -9.58767 1.82937 -14.0425 -8.20054 
5.73718 91.3572 108.659 95.3551 -51.8194 94.3943 -174.839 10.3061 95.5418 -32.7799 24.989 0.462945 65.0265 7.03847 14.2323 34.391 2.84369 7.98005 171.337 12.0591 80.2672 -16.3112 3.8724 0.407562 59.7749 0.852894 -2.64782 29.9163 -1.07717 1.2546 0.256668 7.39889 -90.0899 12.0766 0.467863 -0.230731 0.405742 0.457255 -0.251113 -22.1301 0.515556 -0.0750392 -2.11746 0.515581 -0.0750321 94.9039 -48.2739 -93.5199 42.1882 62.1136 -46.7748 -7.23313 -21.5553 -124.274 -13.6416 -2.43841 8.37711 -92.099 -49.1337 75.3821 -13.5044 9.44832 -43.0935 5.80748 2.97664 -113.311 3.23199 -0.782985 4.409 -29.4715 -12.1581 -9.69013 1.65117 -14.0309 -7.88149 
5.75222 91.3434 108.697 95.327 -51.7584 94.4182 -174.923 10.195 95.5427 -32.7099 25.2779 0.554398 65.1444 7.29397 14.4925 34.2454 2.5519 8.11988 171.403 11.8809 80.3367 -16.047 3.9281 0.373175 59.8308 0.807034 -2.83895 29.7025 -1.03666 1.47394 0.250533 7.40019 -90.086 12.074 0.457566 -0.221774 0.403113 0.447361 -0.241708 -22.1327 0.503043 -0.0743701 -2.12001 0.503071 -0.0743588 94.9119 -48.4778 -93.4774 41.9831 61.7701 -46.6426 -7.80975 -21.2406 -124.188 -13.6512 -2.44088 8.44379 -92.099 -49.1794 75.3937 -13.4052 10.2087 -42.7013 6.52516 2.07861 -112.811 3.03356 -0.81464 4.37792 -29.2308 -12.0715 -9.69581 1.87467 -13.934 -7.91091 
5.76893 91.3786 108.715 95.3146 -51.7351 94.3959 -175.015 10.1835 95.4832 -32.7387 25.1465 0.654003 65.056 7.02759 14.1754 34.3641 2.62759 8.28365 171.359 11.7757 80.3167 -15.8379 4.07051 0.376817 59.6911 0.81255 -2.69435 29.9362 -1.17642 1.51013 0.271866 7.40353 -90.0953 12.0674 0.495466 -0.244422 0.396545 0.484231 -0.265998 -22.1393 0.546017 -0.0842121 -2.12669 0.546015 -0.0842111 94.8412 -48.468 -93.5902 41.6875 61.8076 -46.372 -8.10984 -20.9441 -124.238 -13.1919 -2.28261 8.42601 -92.3335 -49.3806 75.0938 -12.9693 11.1696 -42.0294 7.15565 0.806178 -112.642 2.55593 -0.902345 4.36534 -29.1739 -12.151 -9.68631 2.12097 -14.0238 -7.92862 
5.77299 91.3638 108.709 95.2186 -51.5575 94.3197 -174.971 10.349 95.5393 -32.8208 25.3978 0.590381 64.994 7.02429 14.3944 34.3178 2.67247 8.09263 171.363 11.9578 80.3013 -16.2274 4.17112 0.369826 59.785 0.875469 -2.66409 29.9555 -1.14322 1.38316 0.304048 7.40545 -90.1256 12.0638 0.545239 -0.310295 0.392911 0.531054 -0.334 -22.1431 0.613282 -0.132073 -2.13044 0.613283 -0.13208 94.9441 -48.1604 -93.4734 41.2768 61.9648 -45.9135 -7.97246 -20.6668 -124.348 -13.1654 -2.27858 8.06316 -92.6458 -49.606 74.6853 -12.8163 11.203 -41.8695 7.18884 0.925502 -112.653 2.47169 -0.963732 4.62301 -29.0227 -12.4296 -9.71287 2.22131 -14.2982 -7.89784 
5.80278 91.3177 108.724 95.2876 -51.3938 94.2632 -175.097 10.2569 95.3763 -32.8542 25.3398 0.682795 65.1212 7.25583 14.4402 34.3448 2.6876 8.13358 171.203 12.0546 80.15 -16.5182 4.4446 0.431668 60.0209 0.63593 -2.69509 29.9 -1.26388 1.82074 0.275848 7.41569 -90.1074 12.0431 0.497842 -0.268622 0.372249 0.485518 -0.29028 -22.1636 0.555544 -0.106572 -2.15098 0.555554 -0.106584 94.8548 -48.039 -93.6325 41.4171 61.5682 -46.0676 -8.27601 -20.4063 -124.654 -13.2902 -2.31624 8.44447 -92.6831 -49.7735 74.6735 -12.9438 11.2401 -41.2705 7.25837 0.823466 -112.87 1.60834 -1.05177 4.20729 -28.9517 -12.4003 -9.28022 2.28173 -14.2447 -8.41192 
5.83395 91.2569 108.714 95.2588 -51.1742 94.1636 -175.08 10.3751 95.377 -33.0035 26.0341 0.585717 65.0828 7.3369 14.9463 34.299 2.66272 8.06293 171.133 12.3895 80.0151 -17.266 4.37288 0.452021 60.1496 0.66183 -2.57527 30.2943 -1.33472 1.40512 0.286457 7.42201 -90.1211 12.0306 0.512373 -0.297489 0.359708 0.498791 -0.319764 -22.1762 0.578081 -0.129741 -2.16354 0.578104 -0.129746 94.9367 -47.7393 -93.5471 42.7906 62.2998 -47.5168 -7.89511 -21.2232 -124.696 -13.0886 -2.2506 8.15737 -92.9945 -49.9909 74.2678 -12.5608 11.0344 -41.1053 6.48127 1.0979 -113.161 1.59616 -1.0363 4.11339 -29.1073 -12.6608 -9.13244 2.69049 -14.5474 -8.61719 
5.79961 91.1789 108.673 95.1379 -51.0529 94.0641 -175.193 10.6944 95.3285 -33.5178 26.1065 0.705196 65.1086 7.21364 14.6715 34.4467 2.78024 8.22678 170.97 12.8603 79.9318 -18.0149 3.86894 0.593343 60.2428 0.50218 -2.97288 30.5154 -1.46147 1.42456 0.262436 7.42906 -90.1103 12.0164 0.469726 -0.271297 0.34547 0.457324 -0.291716 -22.1903 0.529539 -0.117581 -2.17766 0.529562 -0.117579 94.8705 -47.5671 -93.6781 44.0181 62.3664 -48.9516 -7.76511 -21.7554 -124.764 -13.3365 -2.33742 8.02744 -92.7164 -49.8711 74.6494 -12.6436 11.3281 -40.8194 6.32161 0.747824 -113.497 0.81555 -1.22304 4.32277 -28.9778 -12.6798 -8.81533 2.79212 -14.5344 -8.78322 
5.72672 91.0012 108.556 95.1079 -51.309 93.8546 -174.978 11.0802 95.247 -33.9651 25.6726 0.43885 65.2769 7.41653 14.6296 34.6688 3.17073 8.10707 170.8 14.2349 79.6716 -20.165 3.84976 0.626097 60.4675 0.116766 -2.24072 31.1718 -1.89035 1.65086 0.293786 7.43465 -90.0997 12.0053 0.537005 -0.257347 0.334399 0.525148 -0.280734 -22.2016 0.589536 -0.0840377 -2.18895 0.589523 -0.0840543 94.9284 -47.3955 -93.6112 44.3436 62.4596 -49.4252 -7.83597 -21.9043 -125.152 -13.4411 -2.3691 8.37577 -92.7446 -49.9236 74.6211 -12.6878 11.5177 -40.4245 6.48359 0.578861 -113.368 -0.257696 -1.41954 4.29561 -29.0127 -12.8312 -8.73075 2.96033 -14.702 -8.92199 
5.6319 90.8116 108.451 95.1598 -51.508 93.9129 -174.722 11.4503 95.3973 -34.54 25.1296 0.296188 65.4941 7.6616 14.405 34.7065 3.61955 7.41094 170.409 16.1879 79.4194 -23.449 3.72657 0.816639 60.1427 0.156205 -0.773592 32.883 -2.73814 1.43181 0.326187 7.44966 -90.115 11.9754 0.594357 -0.293746 0.304574 0.580851 -0.319631 -22.2316 0.65516 -0.101526 -2.21898 0.655165 -0.101536 94.8712 -47.3624 -93.708 45.0392 62.7907 -50.7486 -7.3464 -22.5619 -124.936 -13.8952 -2.52513 8.49656 -92.8096 -49.8918 74.5162 -12.8414 12.2939 -39.8317 7.45558 0.0418847 -112.659 -0.529985 -1.3381 3.64731 -29.0544 -12.9456 -8.83781 3.14192 -14.839 -8.79088 
5.33394 90.5722 108.326 94.9348 -52.0014 93.9913 -174.021 12.4772 95.9369 -35.4547 24.3879 -0.23868 65.4582 7.39451 14.0476 35.4375 4.91092 6.93203 170.349 18.9953 79.2341 -28.1904 1.82507 0.765725 59.7266 0.0970446 1.76574 34.3145 -3.06351 -0.0686225 0.343655 7.45656 -90.1435 11.9618 0.615675 -0.35281 0.290924 0.599547 -0.37958 -22.2453 0.693252 -0.151453 -2.23265 0.693238 -0.151468 94.8253 -47.2441 -93.7991 45.4832 61.6944 -51.8309 -7.73555 -22.0283 -124.59 -14.2081 -2.63167 8.80643 -92.4752 -49.549 74.9252 -13.8108 12.5816 -37.8357 6.41125 0.636786 -113.22 -0.913658 -1.45588 3.87353 -28.6712 -13.0056 -8.65895 3.23069 -14.8498 -8.81688 
5.0162 90.1873 108.322 94.8582 -52.4998 93.8992 -173.744 13.3196 96.341 -36.683 25.2277 -0.444155 65.6499 7.59966 15.0316 35.5892 5.26365 6.66221 171.3 21.9283 78.6153 -34.1115 -1.30993 -0.434501 59.9039 -0.90257 5.74795 35.7558 -3.09764 -2.71719 0.388878 7.49485 -90.1559 11.8855 0.699894 -0.385894 0.214681 0.682223 -0.416333 -22.3219 0.783501 -0.157704 -2.30923 0.7835 -0.1577 94.9527 -47.1388 -93.6108 44.6459 60.9676 -52.3083 -7.33371 -21.8091 -123.444 -14.7992 -2.83787 8.41032 -92.4428 -49.3173 74.9139 -14.1219 13.9832 -36.0803 4.68558 0.563053 -112.224 -2.1794 -1.62145 3.56572 -27.9037 -13.1004 -8.65386 3.55947 -14.8552 -8.25159 
